<svg version="1.1" id="Background" xmlns="http://www.w3.org/2000/svg" viewBox="0 0 1958 1246">
<path fill-rule="evenodd" clip-rule="evenodd" d="M0,220C0,89,85,0,209,0h1540c124,0,209,89,209,220v806c0,131-85,220-209,220H209  c-124,0-209-89-209-220V220z"/>
<path fill-rule="evenodd" clip-rule="evenodd" fill="#FFFFFF" d="M16,227C16,101,97,16,217,16h1522c120,0,201,85,201,211v794  c0,126-81,211-201,211H217c-120,0-201-85-201-211V227z"/>
<path fill-rule="evenodd" clip-rule="evenodd" d="M57,241c0-114,71-187,182-187h1480c111,0,182,73,182,187v765c0,114-71,187-182,187  H239c-111,0-182-73-182-187V241z"/>
<polygon fill-rule="evenodd" clip-rule="evenodd" fill="#FF0000" points="1012,422 1172,382 1268,189 1365,331 1789,217 1415,404   1527,580 1239,490 1083,575 1133,460 "/>
<polygon fill-rule="evenodd" clip-rule="evenodd" fill="#FF0000" points="1569,343 1569,579 1690,579 1690,283 "/>
<path fill-rule="evenodd" clip-rule="evenodd" fill="#FF0000" d="M1555,201c-4-30,25-60,63-67s72,11,75,40c4,29-23,59-62,66  C1593,248,1559,230,1555,201z"/>
<polygon fill-rule="evenodd" clip-rule="evenodd" fill="#FFFFFF" points="196,578 320,578 320,491 385,431 468,578 621,578 469,352   614,217 449,217 320,353 320,217 196,217 196,578 "/>
<path fill-rule="evenodd" clip-rule="evenodd" fill="#FFFFFF" d="M787,578V432h11c11,0,21,3,30,8c7,5,14,14,23,28l66,110h140  l-60-104c-3-5-9-13-17-23c-9-9-16-16-20-18c-7-5-18-9-32-14c18-4,32-8,43-14c16-9,29-21,39-36c9-14,14-31,14-51c0-24-6-43-19-59  c-12-16-28-27-49-33c-20-6-49-9-87-9H662v361H787L787,578z M787,290h54c22,0,38,3,46,9c8,7,12,16,12,28c0,7-3,14-8,21  c-5,6-12,10-20,11c-16,3-27,5-32,5h-52V290L787,290z"/>
<path fill-rule="evenodd" clip-rule="evenodd" fill="#FFFFFF" d="M232,1010c26,23,73,35,141,35c38,0,70-5,96-15c25-10,45-25,59-44  s21-40,21-63c0-20-5-37-16-53c-10-16-27-29-51-40c-23-10-61-21-115-31c-22-4-35-9-41-14c-6-4-9-9-9-15c0-8,4-14,11-20c7-5,18-8,32-8  c17,0,31,4,41,11c9,7,16,19,19,35l116-6c-5-37-21-64-48-81c-26-17-65-26-116-26c-41,0-74,5-98,14s-41,22-53,39c-12,16-18,33-18,52  c0,28,12,51,35,69s61,33,115,44c33,6,54,13,63,20c9,8,14,16,14,25c0,10-5,19-14,26c-10,7-23,11-41,11c-24,0-42-7-54-22  c-8-9-13-22-16-39l-117,7C191,957,206,986,232,1010L232,1010z"/>
<path fill-rule="evenodd" clip-rule="evenodd" fill="#FFFFFF" d="M621,964c19,28,42,48,72,61c29,13,66,19,111,19c44,0,81-7,111-22  c29-15,52-36,68-63c15-27,23-61,23-103c0-57-18-102-54-134s-86-48-153-48c-64,0-115,16-151,49c-36,32-54,78-54,136  C594,901,603,936,621,964L621,964z M739,782c15-16,35-24,60-24c26,0,46,8,61,23c15,16,23,40,23,74c0,40-7,67-22,83  c-14,15-35,23-61,23c-25,0-46-8-61-24c-15-15-22-41-22-77C717,823,724,797,739,782L739,782z"/>
<polygon fill-rule="evenodd" clip-rule="evenodd" fill="#FFFFFF" points="1075,1038 1198,1038 1198,892 1353,892 1353,820 1198,820   1198,757 1379,757 1379,680 1075,680 1075,1038 "/>
<polygon fill-rule="evenodd" clip-rule="evenodd" fill="#FFFFFF" points="1415,768 1540,768 1540,1038 1663,1038 1663,768 1788,768   1788,680 1415,680 1415,768 "/>
</svg>